<?xml version="1.0" encoding="UTF-8"?>
<svg version="1.1" xmlns="http://www.w3.org/2000/svg" width="512" height="512">
<path d="M0 0 C2.59291841 2.72908918 3.44797382 4.68511165 3.5 8.4375 C3.38889482 12.18421347 3.08443315 12.8933476 0.625 16 C-3.52630369 19.16289805 -5.75957186 19.28996333 -11 19 C-13.7721625 18.36377714 -16.43626874 17.4850042 -19.125 16.5625 C-37.95672177 10.27939283 -57.1249445 11.37087204 -75.125 19.6875 C-95.32710787 30.40643756 -112.02616957 48.95173533 -119.359375 70.8046875 C-127.65421133 99.71639963 -118.25638496 125.63085685 -108.18994141 152.66992188 C-105.16125194 160.80557011 -102.21367254 168.96144102 -99.4375 177.1875 C-99.11539551 178.12376221 -98.79329102 179.06002441 -98.46142578 180.0246582 C-94.57334892 191.6773234 -93.7147211 202.73167312 -93.8046875 214.94921875 C-93.80842667 216.45807201 -93.81126936 217.96692773 -93.81326294 219.4757843 C-93.82082838 223.40976902 -93.84041418 227.34360149 -93.8626709 231.27752686 C-93.88692035 236.0175741 -93.89594414 240.75767281 -93.90757751 245.49776459 C-93.92684414 252.66528166 -93.96521553 259.83246593 -94 267 C-80.8 267 -67.6 267 -54 267 C-54.11800281 255.0344552 -54.11800281 255.0344552 -54.27026367 243.06933594 C-54.37588713 230.85846732 -53.12711665 220.03325054 -47.5 209 C-46.99049805 207.99271851 -46.99049805 207.99271851 -46.47070312 206.96508789 C-42.71494227 199.92136259 -37.70899378 194.50600734 -32 189 C-31.36707031 188.33613281 -30.73414063 187.67226562 -30.08203125 186.98828125 C-25.99144683 182.96993673 -21.30726431 180.35628517 -16.25 177.75 C-15.61876221 177.42032227 -14.98752441 177.09064453 -14.3371582 176.75097656 C-2.63669329 171.01594371 9.09397097 170.52469824 21.83984375 170.53125 C23.53707628 170.52413379 25.23430644 170.5164327 26.93153381 170.50817871 C30.46394581 170.49482294 33.99613448 170.49312797 37.52856445 170.49902344 C42.05027468 170.50495583 46.57092461 170.47414216 51.09242916 170.43390656 C54.58663182 170.4080623 58.08057647 170.40514828 61.57486153 170.40879822 C63.24261739 170.40710842 64.91038534 170.39747934 66.5780468 170.37965393 C68.90424284 170.35749342 71.22825428 170.36714322 73.55444336 170.38476562 C74.23762131 170.37150238 74.92079926 170.35823914 75.62467957 170.34457397 C79.15409221 170.4066373 80.98886385 170.99247086 83.92987061 172.98088074 C86.74106347 177.08078219 86.67254365 180.05979635 86.56762695 184.92114258 C86.56835709 185.80944763 86.56908722 186.69775269 86.56983948 187.61297607 C86.56636394 190.54078846 86.5275045 193.46699779 86.48828125 196.39453125 C86.47895301 198.42761872 86.47183695 200.46071745 86.46684265 202.49382019 C86.44777387 207.83868572 86.39867359 213.18286929 86.34332275 218.52746582 C86.28312329 224.94341692 86.26021351 231.35959637 86.23105621 237.77574921 C86.18260904 247.51764009 86.0867924 257.25803536 86 267 C99.2 267 112.4 267 126 267 C126 264.03 126 261.06 126 258 C129.7967401 217.63322286 147.12769408 177.4990942 175 148 C176.15064027 146.64991542 177.2966696 145.29588411 178.4375 143.9375 C186.61384176 134.64873079 196.38989421 127.45611382 206.64648438 120.63671875 C209.08832725 118.98446376 209.08832725 118.98446376 211.58789062 116.87890625 C220.49453799 109.99844464 227.97322432 109.91276096 238.75 110.125 C241.08374807 110.13856549 243.4170178 110.14069494 245.75079346 110.13400269 C247.18896497 110.13323634 248.62723254 110.1454939 250.06512451 110.17385864 C257.53589712 110.24108809 264.16529045 108.90646031 270 104 C275.34152912 96.98604323 275.19571729 89.05498952 275.5625 80.625 C275.60568359 79.69816406 275.64886719 78.77132812 275.69335938 77.81640625 C275.79876186 75.54439706 275.90088606 73.27229075 276 71 C274.94256592 71.07069702 274.94256592 71.07069702 273.86376953 71.14282227 C270.61827083 71.33181076 267.37392924 71.44750981 264.125 71.5625 C262.46210937 71.67561523 262.46210937 71.67561523 260.765625 71.79101562 C254.40783685 71.95931002 250.59957709 71.36851863 245.7265625 67.12109375 C242.51132733 63.83624372 239.60273599 60.34481544 236.703125 56.78125 C227.9063419 45.81852181 227.9063419 45.81852181 215.23934937 40.8196106 C209.23581343 40.34857711 203.3558948 40.64043523 197.34765625 41.00390625 C191.42769367 41.26985434 191.42769367 41.26985434 187.71875 38.9296875 C185.84105972 35.72907907 185.05274777 33.21526475 184.4375 29.5625 C183.06126181 22.82577604 181.49238794 18.97314045 176 14.625 C170.9444747 12.04831291 165.50518685 12.16654542 160 13 C154.85532591 14.88443492 151.234247 17.94830462 148.72265625 22.90625 C147.55065408 26.30188871 147.14766912 29.78770355 146.78515625 33.3515625 C145.71492409 36.96159934 144.25417146 39.15130866 141 41 C136.8001747 41.73082215 132.64721698 41.62841791 128.39453125 41.55859375 C127.16014816 41.55626236 125.92576508 41.55393097 124.65397644 41.55152893 C121.37431543 41.53929907 118.09587647 41.5043775 114.81652832 41.4598999 C111.5099254 41.42294055 108.20326601 41.42463911 104.89648438 41.41992188 C102.35415365 41.40582503 99.81183358 41.38961677 97.26953125 41.37109375 C96.09002396 41.36573105 94.91051666 41.36036835 93.69526672 41.35484314 C76.68929583 41.11301815 76.68929583 41.11301815 71.375 36.9375 C69.47510931 32.87864262 69.05151901 29.39967652 70 25 C72.18159145 22.24430553 73.87177494 20.56411253 77 19 C78.84896221 18.97160549 80.6991626 19.01227358 82.546875 19.0859375 C83.6925293 19.12920166 84.83818359 19.17246582 86.01855469 19.21704102 C87.24993164 19.26916748 88.48130859 19.32129395 89.75 19.375 C91.62413574 19.44835571 91.62413574 19.44835571 93.53613281 19.52319336 C104.69284581 19.96665212 115.84731628 20.46512639 127 21 C127.10183594 20.12214844 127.20367187 19.24429687 127.30859375 18.33984375 C129.12468436 9.56720269 135.74320853 1.98498734 143 -3 C154.08289857 -9.41905437 165.71790206 -10.81701446 178.3125 -8.3515625 C189.14349188 -4.7514885 197.67945327 3.03543344 203.09765625 13.0234375 C204.36747985 15.82295558 205 17.90610507 205 21 C205.73524902 20.95286865 206.47049805 20.9057373 207.22802734 20.85717773 C210.60962643 20.66830759 213.99011595 20.55252033 217.375 20.4375 C218.53128906 20.36208984 219.68757813 20.28667969 220.87890625 20.20898438 C227.35442076 20.04435265 231.33246534 20.54500991 236.3046875 24.87890625 C239.50422733 28.16626007 242.40136082 31.66347744 245.296875 35.21875 C254.0936581 46.18147819 254.0936581 46.18147819 266.76065063 51.1803894 C273.85788262 51.73723357 280.9168153 51.37387447 287.99584961 50.65795898 C291 51 291 51 293.85742188 52.89233398 C296.83880625 57.21663226 296.70444944 60.58635466 296.62890625 65.7265625 C296.63131821 66.67002533 296.63373016 67.61348816 296.63621521 68.58554077 C296.63523714 70.5809957 296.62185301 72.5764779 296.59692383 74.57177734 C296.56284514 77.59438761 296.57620989 80.61403342 296.59570312 83.63671875 C296.5856825 97.96902677 295.2942205 109.21654922 285 120 C277.5535643 127.10860119 269.38688964 131.2452343 258.94152832 131.17068481 C255.93497293 131.09716085 252.9287503 131.01560322 249.92254639 130.92892456 C233.61312432 130.55627154 222.73937447 132.84148708 210.49169922 144.50366211 C209.99943848 144.99745361 209.50717773 145.49124512 209 146 C208.34 146.66 207.68 147.32 207 148 C206.68593956 150.19001026 206.68593956 150.19001026 206.7215271 152.75820923 C206.71036362 153.76224289 206.69920013 154.76627655 206.68769836 155.80073547 C206.68445808 157.45905647 206.68445808 157.45905647 206.68115234 159.15087891 C206.67110672 160.31184586 206.6610611 161.47281281 206.65071106 162.66896057 C206.61972285 166.52148932 206.60280046 170.37394811 206.5859375 174.2265625 C206.56723841 176.89172399 206.54776353 179.55686842 206.5272522 182.22201538 C206.48041797 188.52949845 206.44369644 194.83699852 206.41057932 201.14456689 C206.37239065 208.32470198 206.32297203 215.5047459 206.27259517 222.6848042 C206.16920632 237.45646569 206.0799686 252.22819272 206 267 C206.61899264 266.99539104 207.23798529 266.99078207 207.87573528 266.98603344 C222.94051873 266.87558872 238.00517791 266.7928605 253.07026196 266.74093914 C260.35566438 266.71516258 267.64079648 266.68002309 274.92602539 266.62280273 C281.27620875 266.5729503 287.62619634 266.54070498 293.97656995 266.52955753 C297.33884087 266.52304166 300.70055173 266.5077406 304.06264305 266.47134972 C307.81708584 266.43513845 311.57036231 266.43005166 315.32495117 266.43237305 C316.43841415 266.41439667 317.55187714 266.39642029 318.69908142 266.37789917 C326.23408694 266.42842719 326.23408694 266.42842719 330.18818665 269.37922668 C332.14595258 272.21111922 332.67825144 273.5919076 332.625 277 C332.63789062 277.825 332.65078125 278.65 332.6640625 279.5 C331.94006962 282.22562024 330.99279397 283.98751082 328.94213867 285.9414978 C324.28512143 288.47966001 318.31391359 287.58977078 313.16796875 287.48828125 C311.8074931 287.47894812 310.44700058 287.47183436 309.08650208 287.46684265 C305.51698883 287.44781131 301.94850347 287.3987468 298.37939453 287.34332275 C294.73288883 287.29204504 291.08621595 287.26931062 287.43945312 287.24414062 C280.2925499 287.19062213 273.14634229 287.10535818 266 287 C266.02997826 288.1130098 266.02997826 288.1130098 266.06056213 289.24850464 C266.24173043 296.27942059 266.37833197 303.30951376 266.46630955 310.3421154 C266.51306555 313.95696325 266.57635129 317.56986562 266.67895508 321.18359375 C266.77755512 324.6786283 266.83071956 328.17180608 266.85389519 331.66812515 C266.87834956 333.63491438 266.94848395 335.60096715 267.01966858 337.56661987 C267.02034836 338.78713043 267.02102814 340.00764099 267.02172852 341.26513672 C267.05170677 342.85731522 267.05170677 342.85731522 267.08229065 344.48165894 C265.32002689 350.21047583 261.1446264 353.82063878 257 358 C255.96571107 359.05809333 254.93166262 360.11642177 253.89782429 361.17495537 C250.25619765 364.88489109 246.57783246 368.55756385 242.89892578 372.23046875 C241.49341039 373.63734169 240.08810727 375.04442673 238.68299866 376.45170593 C234.89445435 380.2447795 231.10278974 384.03471907 227.31038904 387.82393646 C223.33448191 391.7973001 219.36102841 395.77311624 215.38717651 399.74853516 C208.72313006 406.41439603 202.05698845 413.07815618 195.38964844 419.74072266 C187.67878805 427.44612618 179.97155776 435.1551466 172.26617253 442.86602497 C165.64193587 449.49479489 159.01575849 456.12162011 152.38794506 462.74681377 C148.43263299 466.70056626 144.47800117 470.65499277 140.52511978 474.61117554 C136.81569657 478.32348106 133.10384779 482.0333439 129.39008904 485.74131203 C128.02624526 487.10383082 126.66325679 488.46720637 125.30117607 489.83148766 C123.44609305 491.68929199 121.58797557 493.54400656 119.72903442 495.39794922 C119.18750642 495.94170794 118.64597842 496.48546667 118.08804047 497.04570293 C111.85882549 503.24233489 111.85882549 503.24233489 106.87649536 503.27415466 C106.03818176 503.28412979 105.19986816 503.29410492 104.33615112 503.30438232 C103.41971832 503.305047 102.50328552 503.30571167 101.55908203 503.30639648 C100.59131836 503.31472 99.62355469 503.32304352 98.62646484 503.33161926 C95.42020674 503.35575843 92.2141519 503.36449609 89.0078125 503.37109375 C86.78205299 503.38005689 84.55629412 503.38917867 82.33053589 503.39845276 C77.66158584 503.41495582 72.99270761 503.42264531 68.32373047 503.42553711 C62.33898647 503.43092309 56.35491673 503.46860705 50.37036324 503.51428127 C45.77214081 503.54401307 41.17408153 503.55125983 36.57577133 503.55226326 C34.36933172 503.55647303 32.16289196 503.56893746 29.95654678 503.58978081 C26.87042812 503.61661473 23.7858825 503.6118931 20.69970703 503.59936523 C19.33113052 503.62161667 19.33113052 503.62161667 17.93490601 503.64431763 C13.61354076 503.59432403 11.61600115 503.4607172 8.07104492 500.80938721 C6.05417939 498.07349473 4.55650149 495.54655457 3.16357422 492.45043945 C2.66469696 491.36193192 2.1658197 490.27342438 1.65182495 489.15193176 C1.12476959 487.98417709 0.59771423 486.81642242 0.0546875 485.61328125 C-1.11029975 483.11917917 -2.28880036 480.63148257 -3.46484375 478.14257812 C-5.30119792 474.24405044 -7.11968284 470.3397573 -8.87841797 466.40551758 C-17.96804578 446.0027897 -17.96804578 446.0027897 -36.04345703 433.84692383 C-37.26600189 433.4027562 -37.26600189 433.4027562 -38.51324463 432.94961548 C-42.82721824 431.30224149 -46.88164754 429.13666908 -50.9921875 427.04296875 C-52.63785717 426.22945006 -54.28499098 425.41888632 -55.93359375 424.61132812 C-56.74554199 424.21244385 -57.55749023 423.81355957 -58.39404297 423.40258789 C-60.07176846 422.58089533 -61.75084564 421.76195781 -63.43115234 420.94555664 C-65.91445203 419.73720137 -68.39118471 418.51619133 -70.8671875 417.29296875 C-71.98587723 416.7553315 -71.98587723 416.7553315 -73.12716675 416.20683289 C-77.98081383 413.79252505 -82.63156036 411.39133983 -84.77111816 406.088974 C-85.47079011 403.71763702 -86.02561414 401.34569233 -86.55078125 398.9296875 C-86.76685532 398.00806824 -86.98292938 397.08644897 -87.20555115 396.13690186 C-87.924657 393.05322482 -88.61835082 389.96438215 -89.3125 386.875 C-89.81549365 384.69666578 -90.32042379 382.51877793 -90.82714844 380.34130859 C-91.64772019 376.81200937 -92.46630568 373.28232124 -93.27816772 369.75100708 C-95.56883548 359.79246915 -97.94242022 349.85519963 -100.33984375 339.921875 C-100.7097709 338.38694909 -101.07962884 336.8520065 -101.44941711 335.31704712 C-102.91361388 329.24027198 -104.37799853 323.16354481 -105.84658813 317.08782959 C-106.71450292 313.49538989 -107.57774722 309.90185626 -108.43770027 306.30750275 C-108.75754328 304.97413286 -109.07900944 303.64115117 -109.40218925 302.30858612 C-109.84619561 300.47707652 -110.28408924 298.64408826 -110.72167969 296.81103516 C-111.09374542 295.26520248 -111.09374542 295.26520248 -111.47332764 293.68814087 C-112 291 -112 291 -112 287 C-112.77816574 287.01110306 -113.55633148 287.02220612 -114.358078 287.03364563 C-121.69982051 287.13392665 -129.04122991 287.2100041 -136.38347912 287.25906086 C-140.1580501 287.28512982 -143.93205414 287.32047629 -147.70629883 287.37719727 C-151.35030481 287.43161681 -154.99376631 287.46144086 -158.63814735 287.47438622 C-160.02685427 287.48360857 -161.41553215 287.50161853 -162.80400658 287.52865028 C-164.75209744 287.56506071 -166.70073891 287.56704339 -168.64916992 287.56762695 C-169.7572551 287.57873001 -170.86534027 287.58983307 -172.00700378 287.60127258 C-175.97763377 286.80360003 -177.47286423 285.08827797 -180 282 C-180.6640625 279.5 -180.6640625 279.5 -180.625 277 C-180.63789063 276.175 -180.65078125 275.35 -180.6640625 274.5 C-179.94006962 271.77437976 -178.99279397 270.01248918 -176.94213867 268.0585022 C-172.28512143 265.52033999 -166.31391359 266.41022922 -161.16796875 266.51171875 C-159.8074931 266.52105188 -158.44700058 266.52816564 -157.08650208 266.53315735 C-153.51698883 266.55218869 -149.94850347 266.6012532 -146.37939453 266.65667725 C-142.73288883 266.70795496 -139.08621595 266.73068938 -135.43945312 266.75585938 C-128.2925499 266.80937787 -121.14634229 266.89464182 -114 267 C-114.09318977 259.29919464 -114.20060005 251.59867673 -114.31738281 243.89819336 C-114.35540295 241.28463104 -114.39030007 238.67102118 -114.421875 236.05737305 C-114.46332431 211.3552398 -114.46332431 211.3552398 -119.3125 187.25 C-119.55613281 186.45327881 -119.79976562 185.65655762 -120.05078125 184.83569336 C-123.10622775 175.17514245 -126.79662042 165.73204012 -130.37017822 156.25473022 C-133.7532342 147.26791318 -137.05816875 138.30602529 -139.6875 129.0625 C-139.90664062 128.29687744 -140.12578125 127.53125488 -140.3515625 126.74243164 C-145.82012166 106.54584529 -147.10343004 82.93855811 -140 63 C-139.76394043 62.33645508 -139.52788086 61.67291016 -139.28466797 60.98925781 C-133.3741666 45.03738243 -123.78287353 32.08729428 -112 20 C-111.35804687 19.28457031 -110.71609375 18.56914062 -110.0546875 17.83203125 C-100.105162 7.04261074 -86.64499304 -0.03972337 -73 -5 C-71.80632812 -5.43441406 -70.61265625 -5.86882813 -69.3828125 -6.31640625 C-48.28327174 -12.71764113 -19.41128835 -11.41450119 0 0 Z M185 169 C162.23427244 194.15016786 147 233.13255786 147 267 C159.87 267 172.74 267 186 267 C186 234.66 186 202.32 186 169 C185.67 169 185.34 169 185 169 Z M26 191 C26 216.08 26 241.16 26 267 C39.2 267 52.4 267 66 267 C66 241.92 66 216.84 66 191 C52.8 191 39.6 191 26 191 Z M-19.125 205.375 C-23.15365345 209.83419656 -26.22608912 214.68482883 -29 220 C-29.5775 221.0725 -30.155 222.145 -30.75 223.25 C-35.42814458 237.28443375 -34.15017275 252.43324289 -34 267 C-20.8 267 -7.6 267 6 267 C6 242.58 6 218.16 6 193 C-2.764748 193 -12.89663168 199.40215449 -19.125 205.375 Z M-91 287 C-82.16100055 324.80350293 -82.16100055 324.80350293 -73.24365234 362.58837891 C-72.49070743 365.7622597 -71.73920841 368.9364767 -70.98831749 372.11084366 C-70.25123726 375.22522517 -69.51222737 378.33914868 -68.7734375 381.453125 C-68.50687347 382.58075256 -68.24030945 383.70838013 -67.96566772 384.87017822 C-67.72095734 385.89947449 -67.47624695 386.92877075 -67.22412109 387.98925781 C-66.90415665 389.33881561 -66.90415665 389.33881561 -66.57772827 390.71563721 C-65.73818492 394.61935098 -65.73818492 394.61935098 -63.05557251 397.35696411 C-62.20272675 397.81553802 -61.34988098 398.27411194 -60.47119141 398.74658203 C-59.50573395 399.26946808 -58.54027649 399.79235413 -57.54556274 400.33108521 C-53.09416523 402.66789771 -48.63998999 404.99767332 -44.16650391 407.29199219 C-41.81221596 408.51052203 -39.46885816 409.75041398 -37.13720703 411.01171875 C-33.77364949 412.83052781 -30.38178595 414.58103194 -26.9765625 416.3203125 C-25.42589584 417.18065598 -25.42589584 417.18065598 -23.84390259 418.05838013 C-20.78977034 419.56361934 -18.38319456 420.58954957 -15 421 C-10.72112191 419.42149927 -7.5288906 416.83929829 -4 414 C-2.38222619 412.91857584 -0.75210321 411.85534613 0.89111328 410.81298828 C2.53479523 409.73303263 4.17784214 408.65210993 5.8203125 407.5703125 C6.71496719 406.98174469 7.60962189 406.39317688 8.53138733 405.78677368 C11.39675951 403.90077939 14.26103274 402.01312694 17.125 400.125 C18.0993399 399.48292603 19.07367981 398.84085205 20.07754517 398.17932129 C44.13546401 383.97115043 44.13546401 383.97115043 66 367 C66.14646214 364.89102065 66.22747892 362.77743746 66.28125 360.6640625 C66.31863281 359.37242187 66.35601562 358.08078125 66.39453125 356.75 C66.43021542 355.3750136 66.46536572 354.00001325 66.5 352.625 C66.56772174 349.95030766 66.64149966 347.27602257 66.71875 344.6015625 C66.74904297 343.40869629 66.77933594 342.21583008 66.81054688 340.98681641 C67 338 67 338 68 335 C70.94826763 334.01724412 72.92652504 333.86585275 76 333.875 C76.86625 333.87242187 77.7325 333.86984375 78.625 333.8671875 C81 334 81 334 84 335 C85.3257433 338.9772299 85.14268506 342.79161626 85.1328125 346.9375 C85.13376923 347.81398193 85.13472595 348.69046387 85.13571167 349.59350586 C85.13639199 351.44612703 85.134548 353.2987506 85.13037109 355.15136719 C85.12502077 357.9889867 85.13032108 360.82644792 85.13671875 363.6640625 C85.13605794 365.46354202 85.13477673 367.26302143 85.1328125 369.0625 C85.13483673 369.91255615 85.13686096 370.7626123 85.13894653 371.63842773 C85.12552238 375.00673216 85.0725117 377.7824649 84 381 C82.3397084 381.68238846 80.67094155 382.34412153 79 383 C76.0481314 384.78533155 73.21745611 386.74734255 70.37109375 388.6953125 C69.09478592 389.56013496 69.09478592 389.56013496 67.79269409 390.44242859 C65.95909346 391.68553906 64.12692716 392.93076728 62.29605103 394.17788696 C57.4665496 397.46752045 52.62697023 400.74227928 47.7890625 404.01953125 C46.80756729 404.6850853 45.82607208 405.35063934 44.81483459 406.03636169 C35.01414039 412.67866338 25.16919056 419.25368523 15.3125 425.8125 C13.74861346 426.85367376 12.1847299 427.89485201 10.62084961 428.93603516 C7.08139812 431.2919426 3.54102558 433.64645921 0 436 C1.60499482 441.41760941 4.00095653 446.2753272 6.53515625 451.30078125 C6.97387558 452.17776169 7.41259491 453.05474213 7.86460876 453.95829773 C8.78813139 455.80233295 9.71358927 457.64540009 10.64086914 459.48754883 C12.06535399 462.31817121 13.48333851 465.15197869 14.90039062 467.98632812 C15.79910052 469.77883573 16.69817616 471.57116001 17.59765625 473.36328125 C18.02369644 474.21424881 18.44973663 475.06521637 18.88868713 475.94197083 C19.47951332 477.11405342 19.47951332 477.11405342 20.08227539 478.30981445 C20.42932022 479.00009232 20.77636505 479.69037018 21.13392639 480.40156555 C21.89803477 481.99298545 21.89803477 481.99298545 23 483 C34.16703273 485.85480855 45.6556838 487.12834094 57.125 488 C57.98241035 488.06623566 58.83982071 488.13247131 59.7232132 488.20071411 C82.79420897 489.77253707 100.31189182 485.69730325 118.13394165 470.50585938 C127.7057675 461.97686193 136.65204262 452.88817481 145.375 443.5 C146.25296486 442.55539917 147.13092972 441.61079834 148.03549957 440.63757324 C159.04755463 428.72485882 169.67682836 416.51304336 180 404 C178.35562114 400.50912119 176.49012485 398.26958314 173.71875 395.55859375 C172.87699219 394.72779297 172.03523438 393.89699219 171.16796875 393.04101562 C169.84732422 391.75227539 169.84732422 391.75227539 168.5 390.4375 C166.75819752 388.73012554 165.01851516 387.02058476 163.28125 385.30859375 C162.50845703 384.55376709 161.73566406 383.79894043 160.93945312 383.02124023 C157.68444785 379.62897077 156.73692907 377.61669679 156.8125 373 C156.82216797 371.700625 156.82216797 371.700625 156.83203125 370.375 C157 368 157 368 158 365 C162.49645586 363.50118138 166.32114533 363.00934121 171 364 C174.26886234 366.07580784 176.85248209 368.65658319 179.51660156 371.45361328 C181.22881367 373.23852959 182.98242902 374.97680521 184.7421875 376.71484375 C188.18494345 380.12046008 191.59790326 383.55378385 195 387 C203.60802935 383.12206503 210.79063011 375.4273737 217.71264267 369.09404087 C220.46188134 366.58472156 223.23198414 364.14364649 226.13916016 361.81811523 C235.31595459 354.34783798 238.93200474 348.58837965 246 338 C246 321.17 246 304.34 246 287 C134.79 287 23.58 287 -91 287 Z " fill="#000000" transform="translate(180,9)"/>
<path d="M0 0 C3.125 1.875 3.125 1.875 5 5 C5.98876625 10.02622846 5.7769173 13.70513784 3.125 18.125 C-1.29486216 20.7769173 -4.97377154 20.98876625 -10 20 C-13.125 18.125 -13.125 18.125 -15 15 C-15.98876625 9.97377154 -15.7769173 6.29486216 -13.125 1.875 C-8.70513784 -0.7769173 -5.02622846 -0.98876625 0 0 Z " fill="#000000" transform="translate(221,20)"/>
</svg>
