<?xml version="1.0" encoding="UTF-8"?>
<svg version="1.1" xmlns="http://www.w3.org/2000/svg" width="200" height="200">
<path d="M0 0 C13.86 0 27.72 0 42 0 C47.62877497 13.50905993 47.62877497 13.50905993 49.86254883 19.37329102 C50.10711823 20.01396011 50.35168762 20.65462921 50.60366821 21.31471252 C51.39019609 23.37699465 52.17386235 25.44034641 52.95703125 27.50390625 C53.51036546 28.95931461 54.06372594 30.41471298 54.61711121 31.87010193 C55.76564439 34.89242523 56.91248341 37.91538534 58.05834961 40.9387207 C59.5275326 44.81410123 61.00316527 48.68699281 62.48027515 52.55935764 C63.62027867 55.5511655 64.75583402 58.54464693 65.89014244 61.53861809 C66.43275526 62.96859293 66.97700585 64.39794744 67.52292824 65.82666206 C68.28145593 67.81311816 69.03370865 69.80184049 69.78442383 71.79125977 C70.21346512 72.92088638 70.64250641 74.050513 71.08454895 75.21437073 C72 78 72 78 72 81 C67.05 81 62.1 81 57 81 C57 84.3 57 87.6 57 91 C58.98 91.495 58.98 91.495 61 92 C63.99278698 94.10855446 65.72415383 95.68644681 66.4921875 99.34375 C66.7209346 103.81104637 66.50143384 107.01832259 63.625 110.5625 C59.79178448 114.12191441 57.40957028 114.39215852 52.328125 114.359375 C48.40995764 113.75455722 46.69641184 111.83123243 44 109 C42.1473913 105.29478259 42.54216838 101.04417932 43 97 C44.92659913 93.50357935 45.92474851 92.31768794 49.75 91.1875 C50.86375 91.0946875 50.86375 91.0946875 52 91 C52 87.7 52 84.4 52 81 C44.08 81 36.16 81 28 81 C28 107.73 28 134.46 28 162 C39.22 162 50.44 162 62 162 C62 166.62 62 171.24 62 176 C34.94 176 7.88 176 -20 176 C-20 171.38 -20 166.76 -20 162 C-8.78 162 2.44 162 14 162 C14 135.27 14 108.54 14 81 C-0.52 81 -15.04 81 -30 81 C-29.14807278 76.74036389 -28.05027759 73.15191635 -26.54736328 69.10180664 C-26.2984433 68.42796432 -26.04952332 67.75412201 -25.7930603 67.05986023 C-24.97256351 64.84188087 -24.1466147 62.62597873 -23.3203125 60.41015625 C-22.74577103 58.8623447 -22.17146429 57.314446 -21.59738159 55.76646423 C-20.39433122 52.52512417 -19.18860692 49.28479512 -17.98095703 46.04516602 C-16.43721981 41.90337004 -14.89988141 37.75923416 -13.36451912 33.61432743 C-12.17966854 30.41771869 -10.99154201 27.2223353 -9.80242538 24.02731133 C-9.23453381 22.50033136 -8.66761908 20.97298773 -8.1017189 19.44526863 C-7.30825153 17.304797 -6.51040968 15.16600543 -5.71142578 13.02758789 C-5.25921661 11.8124501 -4.80700745 10.59731232 -4.34109497 9.34535217 C-3.06301535 6.15719135 -1.53608964 3.07217929 0 0 Z M4 4 C0.51199635 11.59168812 -2.48026757 19.33554729 -5.421875 27.15234375 C-5.93168821 28.50237561 -6.44163936 29.85235538 -6.95172119 31.20228577 C-8.01238123 34.01123124 -9.07108118 36.82090551 -10.12841797 39.63110352 C-11.48508173 43.23623689 -12.84717883 46.83929013 -14.21076584 50.44180965 C-15.26138867 53.21951707 -16.30893734 55.99837595 -17.35556793 58.7775898 C-17.85694183 60.10767077 -18.35933301 61.43736874 -18.86275482 62.76667595 C-19.56238117 64.61531115 -20.25738199 66.46569494 -20.95214844 68.31616211 C-21.54694 69.89426918 -21.54694 69.89426918 -22.15374756 71.5042572 C-23.10704009 73.87646062 -23.10704009 73.87646062 -23 76 C-9.14 76 4.72 76 19 76 C19 106.03 19 136.06 19 167 C7.78 167 -3.44 167 -15 167 C-15 168.65 -15 170.3 -15 172 C8.76 172 32.52 172 57 172 C57 170.35 57 168.7 57 167 C45.78 167 34.56 167 23 167 C23 136.97 23 106.94 23 76 C36.86 76 50.72 76 65 76 C62.46853558 67.55217566 62.46853558 67.55217566 59.56396484 59.28100586 C58.87843033 57.45508156 58.87843033 57.45508156 58.17904663 55.5922699 C57.68983062 54.29973633 57.20045732 53.00726229 56.7109375 51.71484375 C56.20173932 50.36397803 55.69276088 49.01302946 55.18399048 47.66200256 C54.12546072 44.85335989 53.06459458 42.04561491 52.00195312 39.23852539 C50.63812271 35.63535456 49.27982981 32.03012557 47.92317772 28.42424679 C46.87690895 25.64492384 45.82799979 22.86660344 44.77824783 20.08859444 C44.2758992 18.75836665 43.77432725 17.4278453 43.2735405 16.09702873 C42.57743568 14.24849641 41.8774413 12.40143018 41.17724609 10.55444336 C40.77992279 9.50316757 40.38259949 8.45189178 39.97323608 7.36875916 C39.21222943 5.0837871 39.21222943 5.0837871 38 4 C35.47905924 3.91152257 32.98569107 3.88472699 30.46484375 3.90234375 C29.71159317 3.9037587 28.95834259 3.90517365 28.18226624 3.90663147 C25.7673044 3.91224624 23.35243399 3.92480117 20.9375 3.9375 C19.30403779 3.9425131 17.67057414 3.94707634 16.03710938 3.95117188 C12.02470415 3.96222046 8.01236759 3.97949494 4 4 Z M49 97 C47.26176799 99.40041563 46.97020006 100.59273413 47.1875 103.5625 C48.10611408 106.31834223 48.540364 107.44223053 51 109 C55.66252167 109.53535443 55.66252167 109.53535443 59.875 107.8125 C61.32341076 105.47894933 61.79934207 103.74232501 62 101 C61.15022903 98.29618326 60.44875113 97.28951686 58.0625 95.75 C54.4505678 94.43657011 52.13910881 94.97476851 49 97 Z " fill="#229FE1" transform="translate(79,12)"/>
<path d="M0 0 C1.98 0 3.96 0 6 0 C6 29.37 6 58.74 6 89 C-4.89 89 -15.78 89 -27 89 C-27 90.98 -27 92.96 -27 95 C-3.24 95 20.52 95 45 95 C45 93.02 45 91.04 45 89 C34.11 89 23.22 89 12 89 C11.95487589 78.34307264 11.91815707 67.68620838 11.89637566 57.02920723 C11.88592346 52.08112168 11.87173817 47.13310468 11.84912109 42.18505859 C11.82744377 37.41292519 11.8154422 32.64085787 11.81024551 27.86867905 C11.80654054 26.0449507 11.799306 24.22122611 11.78853989 22.39752579 C11.77409279 19.84973488 11.77201919 17.30221958 11.77294922 14.75439453 C11.76575867 13.99482452 11.75856812 13.23525452 11.75115967 12.45266724 C11.77189568 7.22810432 11.77189568 7.22810432 14 5 C14.02505615 5.65597168 14.0501123 6.31194336 14.07592773 6.98779297 C14.1917326 9.95040183 14.31452886 12.91268031 14.4375 15.875 C14.47681641 16.90753906 14.51613281 17.94007812 14.55664062 19.00390625 C14.59853516 19.99003906 14.64042969 20.97617188 14.68359375 21.9921875 C14.73858032 23.35899658 14.73858032 23.35899658 14.79467773 24.75341797 C14.86577065 27.03483481 14.86577065 27.03483481 16 29 C16.0908238 30.78731924 16.11753799 32.57805489 16.11352539 34.36767578 C16.11344986 35.48868683 16.11337433 36.60969788 16.11329651 37.76467896 C16.10813522 38.97928802 16.10297394 40.19389709 16.09765625 41.4453125 C16.0962413 42.68546112 16.09482635 43.92560974 16.09336853 45.20333862 C16.08871096 48.50118133 16.07972439 51.79897546 16.06866455 55.09680176 C16.05843731 58.46166376 16.05381333 61.82653307 16.04882812 65.19140625 C16.03863217 71.7943097 16.01905907 78.3970923 16 85 C27.22 85 38.44 85 50 85 C50 89.62 50 94.24 50 99 C22.94 99 -4.12 99 -32 99 C-32 94.38 -32 89.76 -32 85 C-20.45 85 -8.9 85 3 85 C3 58.6 3 32.2 3 5 C3.66 5 4.32 5 5 5 C5 3.68 5 2.36 5 1 C3.35 1 1.7 1 0 1 C0 0.67 0 0.34 0 0 Z " fill="#15A1E9" transform="translate(91,89)"/>
<path d="M0 0 C0.495 1.485 0.495 1.485 1 3 C-1.31 3 -3.62 3 -6 3 C-6 3.66 -6 4.32 -6 5 C0.435 4.505 0.435 4.505 7 4 C7 4.99 7 5.98 7 7 C2.05 7 -2.9 7 -8 7 C-8 6.01 -8 5.02 -8 4 C-18.89 3.67 -29.78 3.34 -41 3 C-41 32.37 -41 61.74 -41 92 C-30.11 92 -19.22 92 -8 92 C-8 92.33 -8 92.66 -8 93 C-19.22 93 -30.44 93 -42 93 C-42 62.97 -42 32.94 -42 2 C-28.14 2 -14.28 2 0 2 C0 1.34 0 0.68 0 0 Z " fill="#3395CD" transform="translate(144,86)"/>
<path d="M0 0 C0.33 0 0.66 0 1 0 C1.03758423 0.98395752 1.03758423 0.98395752 1.07592773 1.98779297 C1.1917326 4.95040183 1.31452886 7.91268031 1.4375 10.875 C1.47681641 11.90753906 1.51613281 12.94007812 1.55664062 14.00390625 C1.59853516 14.99003906 1.64042969 15.97617188 1.68359375 16.9921875 C1.72025146 17.90339355 1.75690918 18.81459961 1.79467773 19.75341797 C1.86577065 22.03483481 1.86577065 22.03483481 3 24 C3.02892062 27.06708779 2.99639261 30.10730746 2.9140625 33.171875 C2.89282318 34.08704895 2.87158386 35.0022229 2.84970093 35.94512939 C2.8033831 37.88535692 2.75445044 39.82552349 2.703125 41.765625 C2.625685 44.72383288 2.5583043 47.68214485 2.4921875 50.640625 C2.44591838 52.52605663 2.39906219 54.41147397 2.3515625 56.296875 C2.33171295 57.17833191 2.3118634 58.05978882 2.29141235 58.96795654 C2.16816912 63.40332054 1.87212362 67.63314608 1 72 C0.34 72 -0.32 72 -1 72 C-1.02314035 62.90767909 -1.04092375 53.81536827 -1.05181217 44.72302437 C-1.05703728 40.50137418 -1.06412822 36.27974409 -1.07543945 32.05810547 C-1.0862815 27.98623328 -1.09227964 23.91438047 -1.09487724 19.84249496 C-1.09672911 18.28671844 -1.10034518 16.73094302 -1.10573006 15.17517471 C-1.11295795 13.00103693 -1.1139902 10.82697984 -1.11352539 8.65283203 C-1.115746 7.41373077 -1.11796661 6.17462952 -1.12025452 4.89797974 C-1 2 -1 2 0 0 Z " fill="#10A1F0" transform="translate(104,94)"/>
<path d="M0 0 C0.495 1.485 0.495 1.485 1 3 C-1.31 3 -3.62 3 -6 3 C-6 3.66 -6 4.32 -6 5 C0.435 4.505 0.435 4.505 7 4 C7 4.99 7 5.98 7 7 C2.05 7 -2.9 7 -8 7 C-8 6.01 -8 5.02 -8 4 C-18.89 3.67 -29.78 3.34 -41 3 C-41 5.31 -41 7.62 -41 10 C-41.33 10 -41.66 10 -42 10 C-42 7.36 -42 4.72 -42 2 C-28.14 2 -14.28 2 0 2 C0 1.34 0 0.68 0 0 Z " fill="#3CA5DC" transform="translate(144,86)"/>
<path d="M0 0 C0.33 0 0.66 0 1 0 C1 15.51 1 31.02 1 47 C0.67 47 0.34 47 0 47 C0 45.35 0 43.7 0 42 C-1.485 42.495 -1.485 42.495 -3 43 C-3 41.68 -3 40.36 -3 39 C-2.34 39 -1.68 39 -1 39 C-0.67 26.13 -0.34 13.26 0 0 Z " fill="#1B9CE3" transform="translate(106,127)"/>
<path d="M0 0 C0.83805176 0.15847412 1.67610352 0.31694824 2.53955078 0.48022461 C6.17675708 1.02654973 9.69123534 1.21007706 13.3671875 1.31640625 C14.04677521 1.33718735 14.72636292 1.35796844 15.42654419 1.37937927 C17.57593666 1.4442363 19.7254407 1.50345941 21.875 1.5625 C23.3411569 1.60574612 24.80730294 1.64936225 26.2734375 1.69335938 C29.84884275 1.79985104 33.42437037 1.90129409 37 2 C37 2.33 37 2.66 37 3 C26.11 3 15.22 3 4 3 C4 4.65 4 6.3 4 8 C3.67 8 3.34 8 3 8 C2.67 6.35 2.34 4.7 2 3 C1.34 3.99 0.68 4.98 0 6 C0 4.02 0 2.04 0 0 Z " fill="#199FE4" transform="translate(60,175)"/>
<path d="M0 0 C0.33 0 0.66 0 1 0 C1 1.98 1 3.96 1 6 C1.66 6 2.32 6 3 6 C3 4.35 3 2.7 3 1 C3.66 1 4.32 1 5 1 C4.36843005 6.05255964 2.86540627 10.29593201 1 15 C-0.125 11.25 -0.125 11.25 1 9 C0.34 9 -0.32 9 -1 9 C-1.66 10.32 -2.32 11.64 -3 13 C-4 11 -4 11 -3.22265625 8.3984375 C-2.83980469 7.40070313 -2.45695312 6.40296875 -2.0625 5.375 C-1.68222656 4.37210937 -1.30195312 3.36921875 -0.91015625 2.3359375 C-0.60980469 1.56507812 -0.30945312 0.79421875 0 0 Z " fill="#2F9EDA" transform="translate(58,66)"/>
<path d="M0 0 C0.33 0 0.66 0 1 0 C1 2.97 1 5.94 1 9 C2.32 9.33 3.64 9.66 5 10 C5.99 10.66 6.98 11.32 8 12 C7.67 12.66 7.34 13.32 7 14 C6.01 13.67 5.02 13.34 4 13 C4 13.66 4 14.32 4 15 C1.69 14.34 -0.62 13.68 -3 13 C-2.67 12.34 -2.34 11.68 -2 11 C-1.34 11 -0.68 11 0 11 C0 7.37 0 3.74 0 0 Z " fill="#2B9EDE" transform="translate(135,94)"/>
<path d="M0 0 C0.66 0 1.32 0 2 0 C1.71812064 1.79323253 1.4241719 3.58457126 1.125 5.375 C0.96257813 6.37273437 0.80015625 7.37046875 0.6328125 8.3984375 C0 11 0 11 -2 13 C-2 11.68 -2 10.36 -2 9 C-2.66 9 -3.32 9 -4 9 C-4.66 10.32 -5.32 11.64 -6 13 C-5.60791281 7.64147506 -3.6642613 3.85831875 0 0 Z " fill="#2BA1DE" transform="translate(57,75)"/>
<path d="M0 0 C1.65 0 3.3 0 5 0 C5.86355778 1.95421035 6.71559934 3.91351347 7.5625 5.875 C8.03816406 6.96554688 8.51382813 8.05609375 9.00390625 9.1796875 C9.33261719 10.11039063 9.66132812 11.04109375 10 12 C9.67 12.66 9.34 13.32 9 14 C8.01 12.35 7.02 10.7 6 9 C6.33 11.97 6.66 14.94 7 18 C4.55160412 14.32740617 3 11.45351799 3 7 C3.66 7 4.32 7 5 7 C4.81171228 4.55519921 4.81171228 4.55519921 4 2 C2.03241727 0.63979849 2.03241727 0.63979849 0 0 Z " fill="#2B9FDB" transform="translate(116,12)"/>
<path d="M0 0 C0.66 0 1.32 0 2 0 C2 0.99 2 1.98 2 3 C2.99 3.33 3.98 3.66 5 4 C6 10.625 6 10.625 6 14 C5.34 14 4.68 14 4 14 C4 13.01 4 12.02 4 11 C3.01 10.67 2.02 10.34 1 10 C0.67 6.7 0.34 3.4 0 0 Z " fill="#14A5EA" transform="translate(139,68)"/>
<path d="M0 0 C2.35953094 2.35953094 2.49141413 3.77895617 3 7 C2.01 6.01 1.02 5.02 0 4 C0.13277344 4.58007812 0.26554688 5.16015625 0.40234375 5.7578125 C1.39704001 10.15770982 2.31368332 14.53894158 3 19 C0.91567501 15.87351251 -0.28558611 12.94269132 -1.625 9.4375 C-2.07101563 8.28121094 -2.51703125 7.12492187 -2.9765625 5.93359375 C-4 3 -4 3 -4 1 C-2.125 0.375 -2.125 0.375 0 0 Z " fill="#2C9ED9" transform="translate(132,43)"/>
<path d="M0 0 C0.66 0.33 1.32 0.66 2 1 C1.34 2.98 0.68 4.96 0 7 C0.66 7 1.32 7 2 7 C1.25 12.75 1.25 12.75 -1 15 C-1 13.02 -1 11.04 -1 9 C-1.33 10.32 -1.66 11.64 -2 13 C-2.66 13 -3.32 13 -4 13 C-4.33 13.99 -4.66 14.98 -5 16 C-6 14 -6 14 -5.0390625 10.99609375 C-4.57242188 9.82175781 -4.10578125 8.64742187 -3.625 7.4375 C-3.16351563 6.26058594 -2.70203125 5.08367188 -2.2265625 3.87109375 C-1 1 -1 1 0 0 Z " fill="#2DA0DA" transform="translate(79,12)"/>
<path d="M0 0 C2.34914492 2.34914492 2.73140357 3.95679446 3.625 7.125 C3.88539063 8.03507812 4.14578125 8.94515625 4.4140625 9.8828125 C4.70410156 10.93082031 4.70410156 10.93082031 5 12 C4.34 12 3.68 12 3 12 C3 11.01 3 10.02 3 9 C2.34 9 1.68 9 1 9 C1.33 11.31 1.66 13.62 2 16 C-0.03819846 13.96180154 -0.67841059 12.70582202 -1.6875 10.0625 C-2.09548828 9.02802734 -2.09548828 9.02802734 -2.51171875 7.97265625 C-3 6 -3 6 -2 3 C-1.67 4.32 -1.34 5.64 -1 7 C-0.34 7 0.32 7 1 7 C0.67 4.69 0.34 2.38 0 0 Z " fill="#2EA1DB" transform="translate(138,59)"/>
<path d="M0 0 C2.31 0 4.62 0 7 0 C7 0.66 7 1.32 7 2 C13.435 1.505 13.435 1.505 20 1 C20 1.99 20 2.98 20 4 C15.05 4 10.1 4 5 4 C5 3.01 5 2.02 5 1 C3.35 1 1.7 1 0 1 C0 0.67 0 0.34 0 0 Z " fill="#2CA1DA" transform="translate(131,89)"/>
<path d="M0 0 C2.97 0.33 5.94 0.66 9 1 C9.33 2.32 9.66 3.64 10 5 C7.03 5 4.06 5 1 5 C0.67 3.35 0.34 1.7 0 0 Z " fill="#1AA0E9" transform="translate(128,121)"/>
<path d="M0 0 C0.66 0.33 1.32 0.66 2 1 C2.73075648 3.3140622 3.40138258 5.64828869 4 8 C0.37 8 -3.26 8 -7 8 C-7 7.34 -7 6.68 -7 6 C-4.69 6 -2.38 6 0 6 C0 4.02 0 2.04 0 0 Z " fill="#0BA3EF" transform="translate(145,83)"/>
<path d="M0 0 C0.99 0.495 0.99 0.495 2 1 C2 1.99 2 2.98 2 4 C2.99 4.33 3.98 4.66 5 5 C5.33 5.99 5.66 6.98 6 8 C4.35 8.33 2.7 8.66 1 9 C0.67 6.03 0.34 3.06 0 0 Z " fill="#16A4EA" transform="translate(127,35)"/>
<path d="M0 0 C0.66 0.33 1.32 0.66 2 1 C2.56638908 5.81430721 0.82561627 8.20307814 -2 12 C-3.43088528 9.13822943 -2.59991697 7.06624227 -2 4 C-1.34 4 -0.68 4 0 4 C0 2.68 0 1.36 0 0 Z " fill="#12A3EC" transform="translate(73,30)"/>
<path d="M0 0 C0.66 0.99 1.32 1.98 2 3 C2.8353125 3.99 2.8353125 3.99 3.6875 5 C4.120625 5.66 4.55375 6.32 5 7 C4.67 7.99 4.34 8.98 4 10 C3.01 10.33 2.02 10.66 1 11 C0.63890458 9.35567294 0.28629924 7.7094792 -0.0625 6.0625 C-0.25972656 5.14597656 -0.45695312 4.22945312 -0.66015625 3.28515625 C-0.77230469 2.53105469 -0.88445312 1.77695312 -1 1 C-0.67 0.67 -0.34 0.34 0 0 Z " fill="#12A5EE" transform="translate(122,20)"/>
<path d="M0 0 C0.99 0 1.98 0 3 0 C2.690625 0.53625 2.38125 1.0725 2.0625 1.625 C0.82172561 4.3984957 0.4090325 7.00042837 0 10 C-0.66 10 -1.32 10 -2 10 C-2.25 3.375 -2.25 3.375 0 0 Z " fill="#0EA3F1" transform="translate(125,107)"/>
<path d="M0 0 C0.99 0 1.98 0 3 0 C2.67 1.65 2.34 3.3 2 5 C1.34 5 0.68 5 0 5 C0 6.65 0 8.3 0 10 C-0.66 10 -1.32 10 -2 10 C-2 8.02 -2 6.04 -2 4 C-1.34 4 -0.68 4 0 4 C0 2.68 0 1.36 0 0 Z " fill="#12A0EC" transform="translate(61,62)"/>
<path d="M0 0 C0.33 0.66 0.66 1.32 1 2 C0.67 2.66 0.34 3.32 0 4 C0.99 4.33 1.98 4.66 3 5 C1.02 5.99 1.02 5.99 -1 7 C-1.33 6.34 -1.66 5.68 -2 5 C-5.02934491 4.34227572 -5.02934491 4.34227572 -8 4 C-8 3.67 -8 3.34 -8 3 C-6.865625 2.690625 -5.73125 2.38125 -4.5625 2.0625 C-1.21224901 1.37075469 -1.21224901 1.37075469 0 0 Z " fill="#319CD3" transform="translate(139,118)"/>
<path d="M0 0 C1.65 1.65 3.3 3.3 5 5 C4.34 6.65 3.68 8.3 3 10 C2.67 10 2.34 10 2 10 C0.68373308 6.38026598 0 3.90432869 0 0 Z " fill="#10A7F1" transform="translate(131,46)"/>
<path d="M0 0 C0.66 0.33 1.32 0.66 2 1 C1.67 3.31 1.34 5.62 1 8 C0.01 8.33 -0.98 8.66 -2 9 C-2 7.68 -2 6.36 -2 5 C-1.34 5 -0.68 5 0 5 C0 3.35 0 1.7 0 0 Z " fill="#10A2EC" transform="translate(77,20)"/>
<path d="M0 0 C0.66 0 1.32 0 2 0 C1.34 2.31 0.68 4.62 0 7 C-0.66 7 -1.32 7 -2 7 C-1.125 2.25 -1.125 2.25 0 0 Z " fill="#11A3EE" transform="translate(57,75)"/>
<path d="M0 0 C0.99 0.33 1.98 0.66 3 1 C2.34 2.98 1.68 4.96 1 7 C0.34 7 -0.32 7 -1 7 C-0.67 4.69 -0.34 2.38 0 0 Z " fill="#0EA1EE" transform="translate(64,54)"/>
<path d="M0 0 C2 2 2 2 2.125 5.125 C2.08375 6.07375 2.0425 7.0225 2 8 C1.01 7.67 0.02 7.34 -1 7 C-0.67 4.69 -0.34 2.38 0 0 Z " fill="#1A9DE7" transform="translate(135,51)"/>
</svg>
