<?xml version="1.0" encoding="UTF-8"?>
<svg version="1.1" xmlns="http://www.w3.org/2000/svg" width="622" height="277">
<path d="M0 0 C205.26 0 410.52 0 622 0 C622 91.41 622 182.82 622 277 C416.74 277 211.48 277 0 277 C0 185.59 0 94.18 0 0 Z " fill="#FBFBFB" transform="translate(0,0)"/>
<path d="M0 0 C21.0375 -0.185625 21.0375 -0.185625 42.5 -0.375 C46.89634766 -0.42962402 51.29269531 -0.48424805 55.82226562 -0.54052734 C61.27246094 -0.56762695 61.27246094 -0.56762695 63.83972168 -0.57266235 C65.59827845 -0.58175834 67.35680249 -0.60261104 69.1151123 -0.63345337 C83.55437071 -0.87363515 97.84317163 0.59002185 109.3359375 10.38671875 C109.88507813 10.91910156 110.43421875 11.45148438 111 12 C111.61101562 12.58394531 112.22203125 13.16789062 112.8515625 13.76953125 C123.75487155 25.16000942 125.13311275 39.06665466 125.25 54.125 C125.2641394 55.502323 125.2641394 55.502323 125.27856445 56.9074707 C125.21024513 71.29706613 121.55770997 84.25393712 111.4140625 94.8046875 C107.87880785 98.01959545 104.09735588 100.56462381 100 103 C99.01 103.66 98.02 104.32 97 105 C97.35078613 105.52395859 97.70157227 106.04791718 98.06298828 106.5877533 C101.69904836 112.01979531 105.33191247 117.45396409 108.96289062 122.8894043 C110.32013655 124.92023068 111.67820868 126.95050513 113.03710938 128.98022461 C114.98522666 131.8903313 116.93040689 134.80238134 118.875 137.71484375 C119.48746582 138.6283812 120.09993164 139.54191864 120.73095703 140.48313904 C121.29153809 141.32393509 121.85211914 142.16473114 122.4296875 143.03100586 C122.92710449 143.77491074 123.42452148 144.51881561 123.93701172 145.28526306 C125 147 125 147 125 148 C115.75464778 150.44389654 103.83024438 152.98578982 95 148 C89.39052109 142.60786853 85.80411011 135.29866915 82.0625 128.5625 C75.69915465 115.60455643 75.69915465 115.60455643 64.85791016 107.0546875 C55.98496407 104.86064607 46.82752219 106.26623233 38 108 C38 99.42 38 90.84 38 82 C42.84171875 81.94392578 42.84171875 81.94392578 47.78125 81.88671875 C50.9255226 81.8404383 54.06967923 81.78922829 57.21386719 81.73754883 C59.39022711 81.70440219 61.56667088 81.67633866 63.74316406 81.65356445 C66.88122103 81.61982962 70.01851675 81.5675038 73.15625 81.51171875 C74.12115356 81.50532883 75.08605713 81.4989389 76.0802002 81.49235535 C82.90594061 81.34555278 88.64943348 80.445008 94.3125 76.3125 C99.23223297 69.5706437 99.46979314 62.67188463 99.375 54.625 C99.38660156 53.64789063 99.39820313 52.67078125 99.41015625 51.6640625 C99.38054676 44.24194949 98.5189872 36.92962004 94.4375 30.5625 C77.13939608 19.47397184 33.66596835 25.13689229 26 25 C26 65.59 26 106.18 26 148 C17.42 148 8.84 148 0 148 C0 99.16 0 50.32 0 0 Z " fill="#313E7B" transform="translate(448,73)"/>
<path d="M0 0 C36.96 0 73.92 0 112 0 C112 8.58 112 17.16 112 26 C83.29 26 54.58 26 25 26 C25 58.01 25 90.02 25 123 C53.71 123 82.42 123 112 123 C112 131.25 112 139.5 112 148 C75.04 148 38.08 148 0 148 C0 99.16 0 50.32 0 0 Z " fill="#303D7A" transform="translate(225,73)"/>
<path d="M0 0 C11.55 0 23.1 0 35 0 C42.4193038 19.78481013 42.4193038 19.78481013 44.47021484 25.28759766 C45.96923838 29.29686508 47.4972739 33.29413763 49.04368591 37.28538513 C50.05103971 39.88771062 51.05268067 42.49222123 52.05410767 45.09683228 C52.55548579 46.39634804 53.05949135 47.69485345 53.56625366 48.99227905 C54.28659571 50.83728379 54.99695127 52.68617773 55.70703125 54.53515625 C56.1244458 55.611604 56.54186035 56.68805176 56.97192383 57.79711914 C58.06356766 61.19803944 58.59181447 64.45708367 59 68 C55.04 68 51.08 68 47 68 C47.12601418 72.57394246 47.12601418 72.57394246 48 77 C50.86615486 79.49540371 50.86615486 79.49540371 54 81 C55.61707958 84.23415916 55.56822376 87.50375265 55 91 C52.97314048 94.13836313 51.54702808 95.65870267 47.83984375 96.4765625 C43.60531698 96.74519692 41.51340996 96.34576589 37.9375 93.9375 C35.50515951 90.24975797 35.37929187 88.34495691 36 84 C37.45295617 80.55878802 38.31560279 79.3342405 41.6875 77.6875 C42.450625 77.460625 43.21375 77.23375 44 77 C44 74.03 44 71.06 44 68 C37.07 68 30.14 68 23 68 C23 90.77 23 113.54 23 137 C32.24 137 41.48 137 51 137 C51 140.96 51 144.92 51 149 C28.89 149 6.78 149 -16 149 C-16 145.37 -16 141.74 -16 138 C-6.76 138 2.48 138 12 138 C12 114.9 12 91.8 12 68 C-0.21 68 -12.42 68 -25 68 C-21.62851197 55.63787721 -21.62851197 55.63787721 -19.94921875 51.4921875 C-19.5833667 50.57655029 -19.21751465 49.66091309 -18.84057617 48.7175293 C-18.46006104 47.77949463 -18.0795459 46.84145996 -17.6875 45.875 C-14.88662107 38.85488114 -12.16103483 31.83001476 -9.6875 24.6875 C-6.77907259 16.29803216 -3.49770577 8.16131346 0 0 Z " fill="#F7F8FA" transform="translate(374,75)"/>
<path d="M0 0 C8.58 0 17.16 0 26 0 C26.06961654 4.72876828 26.12911427 9.45569398 26.16479492 14.18457031 C26.17969902 15.78652027 26.20002947 17.3884308 26.22631836 18.99023438 C26.52582458 37.73580034 23.98889717 55.50291335 11 70 C10.01022067 71.01011726 9.01372801 72.01391911 8 73 C9.48510716 76.3433951 11.43123617 78.79877697 13.8125 81.5625 C25.55569826 96.13512827 26.47270895 112.96244311 26.1875 130.875 C26.1724075 132.54556069 26.15872727 134.21613475 26.14648438 135.88671875 C26.11646672 139.92509334 26.05769209 143.96155387 26 148 C17.42 148 8.84 148 0 148 C-0.03738281 145.28910156 -0.07476562 142.57820312 -0.11328125 139.78515625 C-0.15960929 137.13395525 -0.21080173 134.48288916 -0.26245117 131.83178711 C-0.29552431 130.00179372 -0.32360999 128.17170263 -0.34643555 126.34155273 C-0.38030807 123.69733387 -0.43263641 121.05399621 -0.48828125 118.41015625 C-0.49467117 117.60353043 -0.5010611 116.7969046 -0.50764465 115.96583557 C-0.71464399 107.80755505 -2.58273216 100.56659639 -8.265625 94.50390625 C-15.58201541 88.15973889 -24.28836115 87.88980049 -33.55859375 87.68359375 C-34.34774673 87.66281265 -35.13689972 87.64203156 -35.94996643 87.62062073 C-38.44573109 87.55576695 -40.94159178 87.49654195 -43.4375 87.4375 C-45.13998348 87.39425358 -46.84245762 87.35063744 -48.54492188 87.30664062 C-52.69651809 87.19946352 -56.8481974 87.09991537 -61 87 C-61 78.42 -61 69.84 -61 61 C-58.39609375 60.97421875 -55.7921875 60.9484375 -53.109375 60.921875 C-50.54742275 60.88330546 -47.98566174 60.83819384 -45.42382812 60.79248047 C-43.66285554 60.764503 -41.9017628 60.74317474 -40.140625 60.72900391 C-23.44199661 60.97655644 -23.44199661 60.97655644 -8.75097656 54.10449219 C-2.13022834 47.33400167 -0.55825786 39.5982435 -0.48828125 30.46875 C-0.47033005 29.59222778 -0.45237885 28.71570557 -0.43388367 27.81262207 C-0.38015491 25.04179547 -0.34600627 22.27113735 -0.3125 19.5 C-0.27929379 17.60935174 -0.24480112 15.71872561 -0.20898438 13.828125 C-0.12205282 9.21873079 -0.06166616 4.61007673 0 0 Z " fill="#323F7C" transform="translate(186,73)"/>
<path d="M0 0 C8.25 0 16.5 0 25 0 C25 48.84 25 97.68 25 148 C16.75 148 8.5 148 0 148 C0 99.16 0 50.32 0 0 Z " fill="#2F3C7A" transform="translate(87,73)"/>
<path d="M0 0 C8.25 0 16.5 0 25 0 C25 48.84 25 97.68 25 148 C16.75 148 8.5 148 0 148 C0 99.16 0 50.32 0 0 Z " fill="#2F3C7A" transform="translate(49,73)"/>
<path d="M0 0 C11.55 0 23.1 0 35 0 C42.4193038 19.78481013 42.4193038 19.78481013 44.47021484 25.28759766 C45.96923838 29.29686508 47.4972739 33.29413763 49.04368591 37.28538513 C50.05103971 39.88771062 51.05268067 42.49222123 52.05410767 45.09683228 C52.55548579 46.39634804 53.05949135 47.69485345 53.56625366 48.99227905 C54.28659571 50.83728379 54.99695127 52.68617773 55.70703125 54.53515625 C56.1244458 55.611604 56.54186035 56.68805176 56.97192383 57.79711914 C58.06356766 61.19803944 58.59181447 64.45708367 59 68 C55.04 68 51.08 68 47 68 C47.12601418 72.57394246 47.12601418 72.57394246 48 77 C50.86615486 79.49540371 50.86615486 79.49540371 54 81 C55.61707958 84.23415916 55.56822376 87.50375265 55 91 C52.97314048 94.13836313 51.54702808 95.65870267 47.83984375 96.4765625 C43.60531698 96.74519692 41.51340996 96.34576589 37.9375 93.9375 C35.50515951 90.24975797 35.37929187 88.34495691 36 84 C37.45295617 80.55878802 38.31560279 79.3342405 41.6875 77.6875 C42.450625 77.460625 43.21375 77.23375 44 77 C44 74.03 44 71.06 44 68 C37.07 68 30.14 68 23 68 C23 90.77 23 113.54 23 137 C32.24 137 41.48 137 51 137 C51 140.96 51 144.92 51 149 C28.89 149 6.78 149 -16 149 C-16 145.37 -16 141.74 -16 138 C-6.76 138 2.48 138 12 138 C12 114.9 12 91.8 12 68 C-0.21 68 -12.42 68 -25 68 C-21.62851197 55.63787721 -21.62851197 55.63787721 -19.94921875 51.4921875 C-19.5833667 50.57655029 -19.21751465 49.66091309 -18.84057617 48.7175293 C-18.46006104 47.77949463 -18.0795459 46.84145996 -17.6875 45.875 C-14.88662107 38.85488114 -12.16103483 31.83001476 -9.6875 24.6875 C-6.77907259 16.29803216 -3.49770577 8.16131346 0 0 Z M2 4 C-1.94985894 13.42883206 -1.94985894 13.42883206 -5.625 22.9375 C-7.40718323 27.7654381 -9.21831136 32.58061181 -11.07400513 37.38087463 C-12.08933293 40.00786225 -13.09967348 42.6367589 -14.11004639 45.26565552 C-14.61819483 46.583829 -15.12863718 47.90112059 -15.64141846 49.21749878 C-16.36859957 51.08534746 -17.08680294 52.95668363 -17.8046875 54.828125 C-18.22733887 55.9202832 -18.64999023 57.01244141 -19.08544922 58.13769531 C-20.20290472 61.13422846 -20.20290472 61.13422846 -20 65 C-8.45 65 3.1 65 15 65 C15 90.08 15 115.16 15 141 C5.76 141 -3.48 141 -13 141 C-13 142.32 -13 143.64 -13 145 C7.13 145 27.26 145 48 145 C48 143.35 48 141.7 48 140 C38.76 140 29.52 140 20 140 C20 115.25 20 90.5 20 65 C31.55 65 43.1 65 55 65 C54.17993269 61.71973077 53.24901234 58.58068268 52.1875 55.375 C51.87167969 54.41335937 51.55585938 53.45171875 51.23046875 52.4609375 C50.28136543 49.79139609 49.27913116 47.1820023 48.21484375 44.55859375 C45.43111696 37.66506218 42.9169082 30.67267051 40.375 23.6875 C39.63842459 21.66602582 38.90139138 19.6447214 38.16348267 17.62373352 C37.49911372 15.80379665 36.83618286 13.98333499 36.17333984 12.1628418 C35.15795808 9.42579004 34.0842097 6.71052426 33 4 C22.77 4 12.54 4 2 4 Z " fill="#5286BA" transform="translate(374,75)"/>
<path d="M0 0 C24.42 0 48.84 0 74 0 C74 8.58 74 17.16 74 26 C49.58 26 25.16 26 0 26 C0 17.42 0 8.84 0 0 Z " fill="#459ED7" transform="translate(263,134)"/>
<path d="M0 0 C0.66 0 1.32 0 2 0 C6.6772079 10.09359307 10.99508324 20.28303478 14.9375 30.6875 C15.32671631 31.70199219 15.71593262 32.71648437 16.11694336 33.76171875 C18.02652425 38.87091983 19.52049111 43.5579547 20 49 C16.04 49 12.08 49 8 49 C8.12601418 53.57394246 8.12601418 53.57394246 9 58 C11.86615486 60.49540371 11.86615486 60.49540371 15 62 C16.61707958 65.23415916 16.56822376 68.50375265 16 72 C13.97314048 75.13836313 12.54702808 76.65870267 8.83984375 77.4765625 C4.60531698 77.74519692 2.51340996 77.34576589 -1.0625 74.9375 C-3.49484049 71.24975797 -3.62070813 69.34495691 -3 65 C-1.54704383 61.55878802 -0.68439721 60.3342405 2.6875 58.6875 C3.450625 58.460625 4.21375 58.23375 5 58 C5 55.03 5 52.06 5 49 C3.51886719 49.03480469 2.03773438 49.06960937 0.51171875 49.10546875 C-1.42967618 49.13360491 -3.37108335 49.16090525 -5.3125 49.1875 C-6.28896484 49.21263672 -7.26542969 49.23777344 -8.27148438 49.26367188 C-9.67817383 49.27817383 -9.67817383 49.27817383 -11.11328125 49.29296875 C-11.97735596 49.3086792 -12.84143066 49.32438965 -13.73168945 49.34057617 C-16 49 -16 49 -19 46 C-7.45 46 4.1 46 16 46 C11.62857628 34.3084961 11.62857628 34.3084961 7.078125 22.7109375 C5.61200034 19.02437768 4.17065027 15.32931238 2.75 11.625 C2.47929687 10.9340625 2.20859375 10.243125 1.9296875 9.53125 C0.62327111 6.09685641 0 3.72810258 0 0 Z " fill="#4A80B7" transform="translate(413,94)"/>
<path d="M0 0 C1 3 1 3 0 6 C11.55 6 23.1 6 35 6 C35 29.1 35 52.2 35 76 C34.67 76 34.34 76 34 76 C34 53.56 34 31.12 34 8 C21.46 8 8.92 8 -4 8 C-2 2 -2 2 0 0 Z " fill="#3D77B2" transform="translate(353,135)"/>
<path d="M0 0 C2.5 0.5 2.5 0.5 4.875 2.0625 C6.5 4.5 6.5 4.5 6.4375 8.125 C5.5 11.5 5.5 11.5 2.5 13.5 C-1.0625 13.3125 -1.0625 13.3125 -4.5 12.5 C-6.66551116 9.25173326 -7.05156953 8.26905843 -6.5 4.5 C-4.50600369 1.76748653 -3.3376027 0.66752054 0 0 Z " fill="#F0F4F7" transform="translate(419.5,154.5)"/>
<path d="M0 0 C2.2317347 5.55318695 -1.39074225 11.39096969 -3.40454102 16.63696289 C-4.18617553 18.68403127 -4.93855731 20.74031669 -5.68945312 22.79882812 C-6.18055314 24.09961603 -6.67333521 25.39977039 -7.16796875 26.69921875 C-7.61422607 27.88346436 -8.0604834 29.06770996 -8.52026367 30.2878418 C-10 33 -10 33 -12.17700195 33.89379883 C-12.77859131 33.92884521 -13.38018066 33.9638916 -14 34 C-12.03239862 27.04445461 -9.69795516 20.32931714 -7 13.625 C-6.65710938 12.74972656 -6.31421875 11.87445313 -5.9609375 10.97265625 C-5.62320312 10.12832031 -5.28546875 9.28398438 -4.9375 8.4140625 C-4.63714844 7.6607666 -4.33679688 6.9074707 -4.02734375 6.13134766 C-2.92407643 3.84248747 -1.58381227 1.98032618 0 0 Z " fill="#487FB6" transform="translate(365,103)"/>
<path d="M0 0 C2.08163365 3.12245047 3.32575613 6.07034881 4.6875 9.5625 C5.14511719 10.71878906 5.60273438 11.87507813 6.07421875 13.06640625 C7 16 7 16 6 18 C5.01 18 4.02 18 3 18 C-1.77676538 6.66287016 -1.77676538 6.66287016 0 0 Z " fill="#598BBD" transform="translate(421,109)"/>
<path d="M0 0 C4.81762253 4.81762253 6.26673616 13.50026059 8 20 C7.34 19.67 6.68 19.34 6 19 C6 18.01 6 17.02 6 16 C5.01 16.33 4.02 16.66 3 17 C2.10369326 15.11414655 1.23366125 13.21578923 0.375 11.3125 C-0.11226563 10.25675781 -0.59953125 9.20101562 -1.1015625 8.11328125 C-2.13833214 4.52064907 -1.75729391 3.2217055 0 0 Z " fill="#5286BA" transform="translate(409,78)"/>
<path d="M0 0 C0.33 0 0.66 0 1 0 C1.36516854 4.50374532 1.36516854 4.50374532 -0.21875 6.65625 C-2.51985446 8.39217091 -3.83982544 8.31131194 -6.6875 8.1875 C-7.89986328 8.14689453 -7.89986328 8.14689453 -9.13671875 8.10546875 C-9.75160156 8.07066406 -10.36648438 8.03585938 -11 8 C-11 7.34 -11 6.68 -11 6 C-9.741875 5.7525 -8.48375 5.505 -7.1875 5.25 C-4.16826586 4.51386164 -3.21509998 4.23591611 -1.0625 1.875 C-0.711875 1.25625 -0.36125 0.6375 0 0 Z " fill="#427BB4" transform="translate(427,162)"/>
<path d="M0 0 C0.66 0.99 1.32 1.98 2 3 C2.99387334 4.33790641 3.9926892 5.67218122 5 7 C4.67 7.66 4.34 8.32 4 9 C6.64 9 9.28 9 12 9 C12 9.33 12 9.66 12 10 C3.96498906 10.78774617 3.96498906 10.78774617 -0.0625 7.5 C-0.701875 6.675 -1.34125 5.85 -2 5 C-1.34 3.35 -0.68 1.7 0 0 Z " fill="#5488BB" transform="translate(412,161)"/>
<path d="M0 0 C0.66 0.33 1.32 0.66 2 1 C0.85845641 2.83600745 -0.28834316 4.66874805 -1.4375 6.5 C-2.07558594 7.5209375 -2.71367187 8.541875 -3.37109375 9.59375 C-3.90863281 10.3878125 -4.44617188 11.181875 -5 12 C-5.33 12 -5.66 12 -6 12 C-5.63076923 4.61538462 -5.63076923 4.61538462 -2.4375 1.5 C-1.633125 1.005 -0.82875 0.51 0 0 Z " fill="#4B81B8" transform="translate(416,152)"/>
<path d="M0 0 C0.33 0.66 0.66 1.32 1 2 C1.66 2 2.32 2 3 2 C2.34 4.31 1.68 6.62 1 9 C-0.32 9.33 -1.64 9.66 -3 10 C-2.01 6.7 -1.02 3.4 0 0 Z " fill="#598BBD" transform="translate(354,127)"/>
</svg>
